<svg width="888" height="467" viewBox="0 0 888 467" fill="none" xmlns="http://www.w3.org/2000/svg">
<g clip-path="url(#clip0_2_95)">
<g opacity="0.4">
<path opacity="0.4" d="M843.175 264.902C825.589 333.915 791.08 403.164 729.76 439.287C721.215 444.325 712.326 448.602 703.201 452.27H77.3797C48.4827 413.169 31.5598 365.332 29.4026 316.751C27.7573 279.616 35.446 240.43 59.4877 212.098C91.9232 173.896 146.717 163.278 196.767 164.913C246.831 166.547 296.688 177.909 346.587 173.48C406.619 168.136 462.034 140.429 515.983 113.534C569.933 86.6387 625.831 59.5793 685.975 55.7179C746.12 51.8693 812.179 76.869 839.196 130.794C859.67 171.652 854.457 220.607 843.175 264.902Z" fill="#E5E5FF"/>
</g>
<g opacity="0.4">
<path opacity="0.4" d="M455.871 71.383C444.38 105.533 423.825 123.094 396.648 126.456C369.515 129.811 342.434 123.706 315.279 124.812C296.482 125.576 276.893 123.648 264.552 106.913C251.509 89.2237 239.187 58.8025 251.583 37.3356C263.667 16.4037 291.005 10.8403 310.314 22.2829C317.487 26.5344 325.917 33.4967 334.568 33.0164C348.461 32.246 361.81 24.0815 374.808 16.1587C387.803 8.23912 401.249 0.293764 415.132 0.0101159C450.729 -0.721566 466.976 38.3799 455.871 71.383Z" fill="#E5E5FF"/>
</g>
<path d="M372.419 319.059C369.657 319.059 367.406 316.751 367.406 313.911C367.406 311.072 369.653 308.764 372.419 308.764C375.182 308.764 377.432 311.072 377.432 313.911C377.432 316.751 375.185 319.059 372.419 319.059ZM372.419 310.15C370.416 310.15 368.791 311.839 368.791 313.911C368.791 315.984 370.42 317.673 372.419 317.673C374.422 317.673 376.048 315.984 376.048 313.911C376.048 311.839 374.422 310.15 372.419 310.15Z" fill="#36AB6D"/>
<path d="M12.8275 238.806C9.37913 238.806 6.57153 235.837 6.57153 232.189C6.57153 228.54 9.37913 225.571 12.8275 225.571C16.2758 225.571 19.0834 228.54 19.0834 232.189C19.0834 235.837 16.2758 238.806 12.8275 238.806ZM12.8275 226.954C10.1422 226.954 7.95601 229.304 7.95601 232.189C7.95601 235.073 10.1422 237.423 12.8275 237.423C15.5159 237.423 17.6989 235.073 17.6989 232.189C17.6989 229.301 15.5127 226.954 12.8275 226.954Z" fill="#36AB6D"/>
<path d="M270.908 390.287C273.58 390.287 275.747 388.131 275.747 385.471C275.747 382.812 273.58 380.656 270.908 380.656C268.235 380.656 266.068 382.812 266.068 385.471C266.068 388.131 268.235 390.287 270.908 390.287Z" fill="#36AB6D"/>
<path d="M881.776 220.93C885.212 220.93 887.997 218.159 887.997 214.741C887.997 211.323 885.212 208.552 881.776 208.552C878.341 208.552 875.556 211.323 875.556 214.741C875.556 218.159 878.341 220.93 881.776 220.93Z" fill="#36AB6D"/>
<path d="M477.672 179.514C474.352 179.514 471.654 176.677 471.654 173.193C471.654 169.709 474.356 166.872 477.672 166.872C480.991 166.872 483.69 169.709 483.69 173.193C483.69 176.677 480.988 179.514 477.672 179.514ZM477.672 168.255C475.115 168.255 473.035 170.469 473.035 173.193C473.035 175.917 475.115 178.131 477.672 178.131C480.228 178.131 482.308 175.917 482.308 173.193C482.308 170.469 480.228 168.255 477.672 168.255Z" fill="#36AB6D"/>
<path d="M649.312 222.844L642.48 215.843L649.451 208.701L656.283 215.702L649.312 222.844ZM644.415 215.843L649.315 220.862L654.354 215.698L649.454 210.68L644.415 215.843Z" fill="#36AB6D"/>
<path d="M59.099 146.298L52.9497 140.142L46.6547 146.444L52.804 152.6L59.099 146.298Z" fill="#36AB6D"/>
<path d="M215.937 324.526L209.105 317.525L216.076 310.382L222.908 317.383L215.937 324.526ZM211.04 317.525L215.941 322.543L220.979 317.38L216.079 312.361L211.04 317.525Z" fill="#36AB6D"/>
<path d="M860.191 106.81L854.08 100.692L860.314 94.4519L866.425 100.57L860.191 106.81ZM856.038 100.695L860.195 104.853L864.47 100.573L860.317 96.4149L856.038 100.695Z" fill="#36AB6D"/>
<path d="M420.715 331.949H355.084C354.691 331.949 354.373 331.63 354.373 331.236C354.373 330.843 354.691 330.524 355.084 330.524H420.715C421.108 330.524 421.427 330.843 421.427 331.236C421.427 331.63 421.108 331.949 420.715 331.949Z" fill="#36AB6D"/>
<path d="M367.499 346.121H355.084C354.691 346.121 354.373 345.802 354.373 345.409C354.373 345.016 354.691 344.697 355.084 344.697H367.499C367.892 344.697 368.211 345.016 368.211 345.409C368.211 345.802 367.892 346.121 367.499 346.121Z" fill="#36AB6D"/>
<path d="M403.229 346.121H377.552C377.159 346.121 376.84 345.802 376.84 345.409C376.84 345.016 377.159 344.697 377.552 344.697H403.229C403.622 344.697 403.94 345.016 403.94 345.409C403.94 345.802 403.622 346.121 403.229 346.121Z" fill="#36AB6D"/>
<path d="M420.715 360.294H355.084C354.691 360.294 354.373 359.975 354.373 359.582C354.373 359.189 354.691 358.87 355.084 358.87H420.715C421.108 358.87 421.427 359.189 421.427 359.582C421.427 359.975 421.108 360.294 420.715 360.294Z" fill="#36AB6D"/>
<path d="M579.193 453.469C578.81 453.469 578.501 453.16 578.501 452.776V342.65C578.501 342.266 578.81 341.957 579.193 341.957C579.576 341.957 579.885 342.266 579.885 342.65V452.776C579.882 453.16 579.573 453.469 579.193 453.469Z" fill="white"/>
<path d="M602.079 452.779H556.304V452.554C556.304 447.251 560.599 442.952 565.895 442.952H592.487C597.784 442.952 602.079 447.251 602.079 452.554V452.779Z" fill="white"/>
<path d="M602.597 453.298H555.786V452.554C555.786 446.974 560.322 442.433 565.896 442.433H592.487C598.061 442.433 602.597 446.974 602.597 452.554V453.298ZM556.829 452.257H601.557C601.403 447.384 597.394 443.467 592.487 443.467H565.896C560.992 443.467 556.983 447.387 556.829 452.257Z" fill="black"/>
<path d="M610.009 347.314H548.377V335.929H598.898C605.035 335.929 610.009 340.909 610.009 347.053V347.314Z" fill="#36AB6D"/>
<path d="M489.739 426.407L492.144 452.779H456.068L472.163 436.953L471.979 426.616L489.739 426.407Z" fill="#36AB6D"/>
<path d="M474.558 442.81C474.459 442.81 474.356 442.787 474.259 442.742L468.901 440.147C468.557 439.98 468.415 439.567 468.579 439.222C468.747 438.877 469.159 438.736 469.503 438.9L474.861 441.495C475.206 441.662 475.347 442.075 475.183 442.42C475.064 442.665 474.816 442.81 474.558 442.81Z" fill="black"/>
<path d="M471.104 446.616C471.004 446.616 470.901 446.594 470.804 446.549L465.447 443.954C465.102 443.786 464.96 443.374 465.125 443.029C465.292 442.684 465.704 442.542 466.049 442.707L471.406 445.301C471.751 445.469 471.892 445.882 471.728 446.226C471.606 446.471 471.361 446.616 471.104 446.616Z" fill="black"/>
<path d="M481.127 453.018C480.776 453.018 480.473 452.75 480.441 452.393C480.122 449.131 481.294 446.281 483.741 444.376C486.046 442.581 489.169 441.94 491.51 442.784C491.871 442.913 492.054 443.309 491.925 443.67C491.797 444.028 491.401 444.218 491.04 444.086C489.157 443.406 486.504 443.977 484.588 445.469C482.527 447.074 481.542 449.485 481.812 452.257C481.851 452.638 481.571 452.976 481.191 453.015C481.172 453.015 481.149 453.018 481.127 453.018Z" fill="black"/>
<path d="M539.198 307.916L494.975 318.417C479.53 322.714 468.634 336.893 468.164 353.47L467.16 431.632L494.914 432.015L508.971 350.989L539.198 307.916Z" fill="#156F3F"/>
<path d="M553.1 420.663L573.053 444.84L543.972 467L548.107 444.434L538.901 431.741L553.1 420.663Z" fill="#36AB6D"/>
<path d="M547.862 447.326C547.54 447.326 547.25 447.1 547.186 446.771C547.108 446.397 547.353 446.033 547.727 445.956L553.561 444.773C553.934 444.695 554.298 444.94 554.375 445.314C554.453 445.688 554.208 446.052 553.835 446.13L548 447.313C547.952 447.319 547.907 447.326 547.862 447.326Z" fill="black"/>
<path d="M547.414 452.447C547.092 452.447 546.803 452.222 546.738 451.893C546.661 451.519 546.906 451.155 547.279 451.077L553.113 449.895C553.487 449.817 553.854 450.062 553.928 450.436C554.005 450.81 553.76 451.174 553.387 451.252L547.553 452.434C547.505 452.444 547.459 452.447 547.414 452.447Z" fill="black"/>
<path d="M566.665 450.088C566.533 450.088 566.398 450.049 566.282 449.972C563.77 448.289 562.93 444.621 563.213 441.923C563.481 439.361 564.653 437.482 566.43 436.769C566.784 436.628 567.187 436.802 567.328 437.156C567.47 437.511 567.299 437.914 566.942 438.055C565.677 438.562 564.798 440.06 564.588 442.068C564.34 444.438 565.107 447.519 567.052 448.821C567.37 449.034 567.454 449.463 567.241 449.782C567.109 449.982 566.89 450.088 566.665 450.088Z" fill="black"/>
<path d="M592.754 315.185L589.274 329.396C589.045 330.453 588.614 331.646 588.005 332.893C584.908 339.253 579.061 343.366 572.612 344.223L527.214 356.823L565.58 424.644L541.384 441.253L496.333 377.236C486.092 362.531 489.295 341.206 503.278 331.02C508.063 327.536 511.756 325.022 512.294 325.141L544.034 307.684L592.754 315.185Z" fill="#15693C"/>
<path d="M507.165 287.716L506.202 315.939C533.315 311.288 563.977 309.16 592.706 315.181C598.473 302.582 596.551 292.373 591.505 280.657L507.165 287.716Z" fill="#02843F"/>
<path d="M500.496 297.779C500.496 297.779 476.909 299.842 473.055 283.087C470.189 270.642 480.795 251.138 490.255 236.895C497.776 225.568 507.989 216.926 519.641 211.834L532.932 206.025L551.899 212.872L582.149 231.283L589.747 296.49C589.744 296.49 500.046 297.779 500.496 297.779Z" fill="#51C789"/>
<path d="M567.599 274.233L563.22 274.932C559.369 275.548 553.329 276.808 549.394 277.969C540.84 280.492 537.211 290.597 537.211 290.597L545.074 291.074L558.725 285.192L569.64 285.698L567.599 274.233Z" fill="#FFBC96"/>
<path d="M543.431 290.468C543.319 290.468 543.209 290.414 543.145 290.314C543.039 290.156 543.081 289.94 543.238 289.834L550.064 285.25C550.222 285.144 550.438 285.186 550.544 285.344C550.65 285.501 550.608 285.717 550.45 285.824L543.625 290.407C543.563 290.449 543.496 290.468 543.431 290.468Z" fill="#D28572"/>
<path d="M540.492 290.294C540.405 290.294 540.315 290.262 540.247 290.195C540.112 290.059 540.112 289.84 540.247 289.705L545.518 284.428C545.653 284.293 545.872 284.293 546.007 284.428C546.143 284.563 546.143 284.783 546.007 284.918L540.737 290.195C540.669 290.262 540.582 290.294 540.492 290.294Z" fill="#D28572"/>
<path d="M542.968 205.31L564.257 210.796C569.959 212.353 577.245 216.191 580.906 219.792C590.774 229.494 608.789 254.858 609.941 271.467C610.543 280.141 604.941 287.258 594.129 288.821L570.361 292.254L563.152 274.865L585.017 269.321L565.075 237.317L542.968 205.31Z" fill="#51C789"/>
<path d="M570.146 292.631L562.747 274.694L584.473 269.098L563.445 235.544C563.342 235.383 563.394 235.167 563.555 235.067C563.716 234.964 563.928 235.015 564.031 235.177L585.565 269.533L563.69 275.164L570.58 291.867L594.081 288.473C594.271 288.444 594.445 288.576 594.474 288.767C594.5 288.957 594.371 289.131 594.181 289.16L570.146 292.631Z" fill="black"/>
<path d="M536.757 226.164C532.272 226.164 527.777 224.317 524.21 220.965C524.071 220.833 524.065 220.614 524.194 220.475C524.326 220.337 524.542 220.33 524.683 220.459C528.534 224.079 533.502 225.877 538.312 225.391C543.303 224.888 547.733 222.084 551.124 217.281C551.233 217.126 551.449 217.088 551.606 217.197C551.761 217.307 551.8 217.523 551.69 217.681C548.181 222.651 543.58 225.555 538.383 226.08C537.845 226.138 537.301 226.164 536.757 226.164Z" fill="black"/>
<path d="M504.402 256.357C504.354 256.357 504.302 256.347 504.254 256.324C504.08 256.244 504.006 256.038 504.086 255.863L512.844 237.178C512.925 237.004 513.131 236.93 513.305 237.011C513.478 237.091 513.553 237.297 513.472 237.472L504.714 256.157C504.656 256.282 504.531 256.357 504.402 256.357Z" fill="black"/>
<path d="M513.121 168.178C511.82 166.147 511.424 163.559 512.062 161.232C512.699 158.904 514.357 156.88 516.511 155.797C518.231 154.933 520.604 154.798 521.827 156.284C524.68 153.46 529.596 153.057 532.871 155.378C533.872 156.081 536.567 154.54 537.584 154.292C539.565 153.812 541.554 154.06 543.139 155.517C544.471 156.742 545.067 158.837 544.246 160.452C545.199 158.585 551.986 161.041 553.033 161.86C558.3 165.983 558.004 174.998 553.599 179.649C552.733 180.561 551.407 181.206 551.065 182.418C550.637 183.936 550.312 183.214 550.837 184.7C552.595 189.654 548.532 194.986 543.293 194.596L513.121 168.178Z" fill="black"/>
<path d="M539.062 220.536C533.309 221.787 527.735 217.916 526.621 211.908L526.277 210.038L523.959 197.577L523.778 196.6L544.645 192.088L547.488 207.382C548.602 213.403 544.829 219.289 539.062 220.536Z" fill="#FFBC96"/>
<path d="M541.023 197.8C538.061 203.595 533.289 207.798 526.274 210.038L523.955 197.577L541.023 197.8Z" fill="#D28572"/>
<path d="M536.5 201.216C527.845 205.149 519.825 203.389 517.625 191.501C517.21 189.274 517.004 186.686 517.03 183.707C517.043 182.876 517.072 182.006 517.114 181.106C517.542 172.996 515.246 169.419 517.416 166.676C521.261 161.802 527.259 163.859 532.391 163.859C540.589 163.859 546.065 167.997 546.59 178.876C547.022 187.611 545.515 197.132 536.5 201.216Z" fill="#FFBC96"/>
<path d="M514.425 163.388C508.14 164.954 510.671 174.676 516.383 175.153C518.91 175.366 523.756 172.71 523.811 169.557C523.765 172.158 525.652 174.65 528.057 175.166C530.462 175.681 533.112 174.167 534.03 171.752C534.426 173.135 535.485 174.283 536.78 174.737C538.074 175.192 539.568 174.937 540.666 174.079C539.883 176.626 541.236 179.475 543.242 181.103C545.248 182.731 547.778 183.411 550.235 184.033L546.803 165.048C546.803 165.048 528.656 160.1 528.138 160.1C527.616 160.1 514.431 163.388 514.425 163.388Z" fill="black"/>
<path d="M547.118 189.903C549.867 189.903 552.096 187.566 552.096 184.684C552.096 181.802 549.867 179.466 547.118 179.466C544.369 179.466 542.141 181.802 542.141 184.684C542.141 187.566 544.369 189.903 547.118 189.903Z" fill="#FFBC96"/>
<path d="M529.783 181.586C529.783 182.579 530.36 183.385 531.068 183.385C531.776 183.385 532.353 182.579 532.353 181.586C532.353 180.594 531.776 179.788 531.068 179.788C530.36 179.788 529.783 180.59 529.783 181.586Z" fill="black"/>
<path d="M522.078 181.245C522.078 182.238 522.655 183.043 523.363 183.043C524.071 183.043 524.648 182.238 524.648 181.245C524.648 180.252 524.071 179.446 523.363 179.446C522.655 179.446 522.078 180.252 522.078 181.245Z" fill="black"/>
<path d="M526.229 190.293C526.19 190.293 526.155 190.286 526.116 190.273L526.039 190.247C525.285 189.99 524.248 189.632 523.785 188.839C523.212 187.859 524.116 186.815 524.458 186.421C525.243 185.512 526.154 184.278 526.206 182.789C526.212 182.599 526.383 182.45 526.563 182.454C526.753 182.46 526.905 182.621 526.898 182.811C526.84 184.516 525.842 185.877 524.983 186.873C524.355 187.598 524.165 188.11 524.387 188.488C524.722 189.061 525.581 189.355 526.267 189.593L526.348 189.619C526.528 189.68 526.625 189.877 526.563 190.057C526.505 190.202 526.37 190.293 526.229 190.293Z" fill="#D28572"/>
<path d="M530.375 191.16L523.408 192.958C523.408 192.958 527.388 198.512 530.375 191.16Z" fill="white"/>
<path d="M534.626 179.649C534.275 179.14 533.895 178.731 533.444 178.434C533.003 178.131 532.507 177.935 531.995 177.847C531.483 177.76 530.965 177.78 530.475 177.922C529.986 178.063 529.535 178.341 529.12 178.789L528.647 178.56C528.782 177.847 529.313 177.187 530.002 176.832C530.688 176.468 531.493 176.381 532.233 176.523C532.977 176.661 533.676 177.026 534.197 177.557C534.719 178.089 535.06 178.782 535.125 179.485L534.626 179.649Z" fill="black"/>
<path d="M520.514 178.586C520.552 177.973 520.922 177.409 521.399 177.019C521.882 176.629 522.494 176.397 523.125 176.365C523.756 176.326 524.403 176.503 524.912 176.855C525.424 177.2 525.794 177.69 525.984 178.225L525.562 178.54C525.124 178.27 524.741 178.044 524.351 177.902C523.962 177.76 523.579 177.696 523.186 177.709C522.796 177.722 522.4 177.815 522.03 177.989C521.657 178.157 521.315 178.402 521.009 178.756L520.514 178.586Z" fill="black"/>
<path opacity="0.5" d="M536.666 191.277C538.801 190.932 540.252 188.92 539.907 186.783C539.561 184.646 537.551 183.193 535.417 183.539C533.282 183.884 531.831 185.897 532.176 188.034C532.521 190.171 534.532 191.623 536.666 191.277Z" fill="#FF9289"/>
<path opacity="0.5" d="M521.528 187.485C521.582 189.435 520.172 191.166 518.195 191.456C518.002 191.485 517.809 191.498 517.629 191.498C517.213 189.271 517.007 186.682 517.033 183.704C519.148 183.385 521.112 184.826 521.47 186.915L521.483 186.998C521.512 187.169 521.512 187.321 521.528 187.485Z" fill="#FF9289"/>
<path d="M545.592 187.092C545.415 187.092 545.264 186.953 545.248 186.773C545.045 184.22 545.953 182.447 547.949 181.503C548.123 181.422 548.329 181.496 548.409 181.667C548.49 181.841 548.416 182.047 548.245 182.128C546.51 182.95 545.756 184.449 545.937 186.718C545.953 186.908 545.811 187.076 545.618 187.092C545.608 187.092 545.602 187.092 545.592 187.092Z" fill="#D28572"/>
<path d="M564.115 290.327H530.714V298.14H564.115V290.327Z" fill="black"/>
<path d="M541.561 298.14H486.352L466.709 245.22H521.917L541.561 298.14Z" fill="#36AB6D"/>
<path d="M313.962 425.204C313.579 425.204 313.27 424.895 313.27 424.511L313.295 243.322C313.295 242.938 313.604 242.629 313.988 242.629C314.371 242.629 314.68 242.938 314.68 243.322L314.654 424.511C314.654 424.895 314.345 425.204 313.962 425.204Z" fill="white"/>
<path d="M364.75 453.298C364.637 453.298 364.521 453.269 364.415 453.211L313.984 425.275L263.554 453.211C263.219 453.395 262.8 453.276 262.614 452.94C262.43 452.605 262.549 452.186 262.884 451.999L313.984 423.693L365.084 451.999C365.419 452.183 365.538 452.605 365.355 452.94C365.229 453.169 364.994 453.298 364.75 453.298Z" fill="white"/>
<path d="M414.8 58.3964H213.172V260.853H414.8V58.3964Z" fill="white"/>
<path d="M415.319 261.372H212.653V57.8775H415.319V261.372ZM213.69 260.334H414.282V58.9153H213.69V260.334Z" fill="black"/>
<path d="M252.198 208.22H236.743V215.266H252.198V208.22Z" fill="#36AB6D"/>
<path d="M324.873 211.224H257.211V212.262H324.873V211.224Z" fill="black"/>
<path d="M252.198 221.942H236.743V228.988H252.198V221.942Z" fill="#02843F"/>
<path d="M324.873 224.943H257.211V225.981H324.873V224.943Z" fill="black"/>
<path d="M250.897 143.255H243.933V166.55H250.897V143.255Z" fill="#36AB6D"/>
<path d="M265.292 136.203H258.328V166.55H265.292V136.203Z" fill="#36AB6D"/>
<path d="M279.688 123.764H272.724V166.55H279.688V123.764Z" fill="#36AB6D"/>
<path d="M294.083 112.418H287.119V166.55H294.083V112.418Z" fill="#36AB6D"/>
<path d="M308.475 100.792H301.511V166.55H308.475V100.792Z" fill="#36AB6D"/>
<path d="M322.871 95.6929H315.906V166.55H322.871V95.6929Z" fill="#36AB6D"/>
<path d="M337.266 101.198H330.302V166.553H337.266V101.198Z" fill="#36AB6D"/>
<path d="M351.662 107.567H344.697V166.55H351.662V107.567Z" fill="#36AB6D"/>
<path d="M366.057 95.6929H359.093V166.55H366.057V95.6929Z" fill="#36AB6D"/>
<path d="M380.452 89.0014H373.488V166.55H380.452V89.0014Z" fill="#36AB6D"/>
<path d="M394.844 80.1051H387.88V166.55H394.844V80.1051Z" fill="#36AB6D"/>
<path d="M399.355 167.095H234V76.3049H235.384V165.712H399.355V167.095Z" fill="black"/>
<path d="M247.539 154.263L247.294 152.899L261.509 150.34L275.048 139.11L275.106 139.081L289.868 130.933L304.393 119.152L319.696 115.774L332.881 126.581L347.122 134.962L362.441 114.839L377.052 110.156L392.568 102.816L393.157 104.067L377.516 111.458L363.275 116.025L347.479 136.78L332.047 127.687L319.342 117.269L305.011 120.435L290.644 132.087L290.59 132.116L275.83 140.261L262.111 151.639L247.539 154.263Z" fill="#02843F"/>
<path d="M364.218 175.962H263.75V181.039H364.218V175.962Z" fill="#36AB6D"/>
<path d="M371.054 218.722L384.252 197.996C380.436 195.556 375.916 194.125 371.054 194.125C357.483 194.125 346.481 205.139 346.481 218.725C346.481 232.311 357.483 243.325 371.054 243.325C384.625 243.325 395.627 232.311 395.627 218.725C395.627 218.274 395.582 217.832 395.559 217.387L371.054 218.722Z" fill="#36AB6D"/>
<path d="M395.559 217.384C395.121 209.229 390.73 202.138 384.252 197.996L371.054 218.722L395.559 217.384Z" fill="#02843F"/>
<path d="M146.581 425.024L143.893 452.854H184.223L166.228 436.157L166.437 425.246L146.581 425.024Z" fill="#36AB6D"/>
<path d="M162.174 441.253C161.907 441.253 161.653 441.095 161.54 440.834C161.389 440.483 161.55 440.076 161.901 439.925L167.696 437.421C168.047 437.269 168.453 437.43 168.604 437.782C168.755 438.133 168.594 438.539 168.243 438.691L162.448 441.195C162.358 441.234 162.264 441.253 162.174 441.253Z" fill="black"/>
<path d="M165.629 445.176C165.362 445.176 165.107 445.018 164.995 444.757C164.843 444.405 165.004 443.999 165.355 443.848L171.151 441.343C171.502 441.192 171.907 441.353 172.059 441.704C172.21 442.056 172.049 442.462 171.698 442.613L165.903 445.118C165.812 445.156 165.722 445.176 165.629 445.176Z" fill="black"/>
<path d="M144.936 441.111C147.862 441.556 150.77 442.546 152.779 444.824C154.646 446.942 155.377 449.811 155.661 452.557C155.751 453.434 157.135 453.443 157.042 452.557C156.723 449.472 155.918 446.381 153.867 443.977C151.713 441.45 148.5 440.263 145.3 439.78C144.433 439.645 144.06 440.979 144.936 441.111Z" fill="black"/>
<path d="M99.2672 425.301L96.1505 452.854H58.5635L73.4547 437.827L79.6945 425.246L99.2672 425.301Z" fill="#36AB6D"/>
<path d="M79.2501 441.021C79.1599 441.021 79.0666 441.002 78.9764 440.963L73.1809 438.458C72.83 438.307 72.669 437.901 72.8203 437.549C72.9716 437.198 73.3773 437.037 73.7283 437.188L79.5238 439.693C79.8747 439.844 80.0357 440.251 79.8844 440.602C79.7717 440.866 79.5173 441.021 79.2501 441.021Z" fill="black"/>
<path d="M75.7923 444.944C75.7022 444.944 75.6088 444.924 75.5186 444.886L69.7231 442.381C69.3722 442.23 69.2112 441.824 69.3625 441.472C69.5139 441.121 69.9195 440.96 70.2705 441.111L76.066 443.616C76.4169 443.767 76.5779 444.173 76.4266 444.525C76.3139 444.786 76.0596 444.944 75.7923 444.944Z" fill="black"/>
<path d="M96.9233 439.893C93.7228 440.379 90.5096 441.566 88.3556 444.089C86.3046 446.494 85.4997 449.585 85.1809 452.67C85.0875 453.556 86.472 453.55 86.5622 452.67C86.8455 449.924 87.5764 447.055 89.4438 444.937C91.4529 442.658 94.3636 441.669 97.2871 441.224C98.1693 441.095 97.7958 439.761 96.9233 439.893Z" fill="black"/>
<path d="M107.326 237.774L69.063 431.702H105.05L149.724 223.302L107.326 237.774Z" fill="#02843F"/>
<path d="M135.714 235.102L141.919 430.59H173.562L172.32 225.084L135.714 235.102Z" fill="#02843F"/>
<path d="M167.323 232.653L112.61 239.779L113.946 144.928L158.426 143.594L167.323 232.653Z" fill="white"/>
<path d="M141.809 116.87V141.312C141.809 148.093 141.066 153.18 134.153 153.528C129.707 153.75 123.547 151.043 121.722 147.278C120.849 145.505 120.366 143.471 120.366 141.312V116.87H141.809Z" fill="#D28572"/>
<path d="M141.803 126.788V138.275C135.773 136.767 128.403 132.051 124.764 126.788H141.803Z" fill="#925D4F"/>
<path d="M141.809 132.038C141.381 132.177 140.911 132.274 140.412 132.341C136.79 132.88 131.867 132.299 127.359 129.863C124.858 128.519 122.465 126.598 120.514 123.98C120.459 123.925 120.418 123.855 120.363 123.787C119.851 123.094 119.368 122.346 118.924 121.543L118.038 118.401L116.712 113.737L113.061 100.837L130.978 91.9925C130.978 91.9925 144.611 94.829 145.966 95.7154C145.731 98.178 145.702 100.644 145.799 103.064C145.924 106.526 146.311 109.875 146.655 113.018C146.974 115.758 147.264 118.333 147.36 120.644C147.615 126.459 146.674 130.694 141.809 132.038Z" fill="#D28572"/>
<path d="M116.155 119.129C116.155 119.129 121.165 117.463 120.505 116.428C119.51 114.868 116.548 110.194 119.667 104.85C120.289 103.783 123.615 102.923 124.735 102.513C126.139 101.998 127.585 101.585 129.056 101.356C131.197 101.021 133.354 101.105 135.454 101.662C138.358 102.436 141.185 104.434 144.266 103.651C146.488 103.087 149.015 101.308 149.617 98.8355C149.959 97.4334 149.65 95.9249 149.038 94.6292C145.261 86.6161 136.101 86.1036 128.734 86.8063C122.723 87.38 117.935 89.8072 114.699 95.4543C114.577 95.6703 113.965 97.1497 113.801 97.1691C105.935 98.1715 110.259 115.874 116.155 119.129Z" fill="black"/>
<path d="M118.103 124.606C120.98 124.606 123.312 122.128 123.312 119.071C123.312 116.015 120.98 113.537 118.103 113.537C115.225 113.537 112.893 116.015 112.893 119.071C112.893 122.128 115.225 124.606 118.103 124.606Z" fill="#D28572"/>
<path d="M119.815 103.126C120.002 107.767 120.311 112.67 120.07 117.315C119.996 118.733 119.555 118.581 119.017 117.978C118.363 117.244 117.9 115.977 117.761 114.526L117.047 107.119L119.815 103.126Z" fill="black"/>
<path d="M133.477 112.335C133.477 113.353 132.888 114.181 132.157 114.181C131.429 114.181 130.837 113.356 130.837 112.335C130.837 111.313 131.426 110.488 132.157 110.488C132.884 110.488 133.477 111.313 133.477 112.335Z" fill="black"/>
<path d="M141.378 111.983C141.378 113.002 140.789 113.83 140.058 113.83C139.33 113.83 138.738 113.005 138.738 111.983C138.738 110.961 139.327 110.136 140.058 110.136C140.789 110.14 141.378 110.965 141.378 111.983Z" fill="black"/>
<path d="M137.121 121.253C136.977 121.253 136.845 121.163 136.793 121.021C136.732 120.841 136.825 120.644 137.009 120.583L137.089 120.554C137.798 120.312 138.677 120.009 139.024 119.416C139.253 119.026 139.057 118.497 138.413 117.75C137.53 116.731 136.51 115.339 136.449 113.592C136.442 113.401 136.59 113.24 136.783 113.234C136.97 113.227 137.134 113.376 137.141 113.569C137.192 115.1 138.126 116.367 138.934 117.298C139.282 117.701 140.206 118.765 139.62 119.767C139.144 120.58 138.087 120.944 137.315 121.208L137.234 121.237C137.199 121.247 137.16 121.253 137.121 121.253Z" fill="#925D4F"/>
<path d="M132.868 122.156L140.013 124C140.013 124 133.96 128.822 132.868 122.156Z" fill="white"/>
<path d="M127.871 109.849C128.174 109.376 128.605 108.995 129.095 108.692C129.587 108.396 130.148 108.199 130.73 108.119C131.893 107.954 133.132 108.302 133.931 109.108L133.683 109.592C133.164 109.534 132.698 109.469 132.24 109.45C131.786 109.427 131.345 109.437 130.907 109.488C130.47 109.54 130.032 109.637 129.591 109.772C129.146 109.901 128.705 110.082 128.219 110.265L127.871 109.849Z" fill="black"/>
<path d="M142.202 109.25C141.735 109.16 141.317 109.024 140.914 108.934C140.515 108.834 140.142 108.763 139.784 108.744C139.427 108.724 139.082 108.75 138.712 108.821C138.342 108.892 137.955 109.018 137.505 109.144L137.163 108.724C137.421 108.286 137.81 107.925 138.29 107.677C138.767 107.426 139.34 107.319 139.884 107.364C140.431 107.406 140.94 107.587 141.375 107.835C141.809 108.093 142.186 108.402 142.489 108.786L142.202 109.25Z" fill="black"/>
<path opacity="0.2" d="M130.136 121.924C131.77 120.421 131.878 117.876 130.377 116.24C128.876 114.604 126.334 114.496 124.699 115.999C123.065 117.502 122.958 120.047 124.459 121.683C125.96 123.319 128.502 123.427 130.136 121.924Z" fill="#0E4528"/>
<path opacity="0.2" d="M147.367 120.647C146.884 120.854 146.359 120.966 145.805 120.966C143.744 120.966 142.057 119.429 141.809 117.45C141.796 117.282 141.78 117.118 141.78 116.95V116.866C141.822 114.681 143.606 112.921 145.805 112.921C146.095 112.921 146.385 112.95 146.662 113.018C146.98 115.761 147.27 118.336 147.367 120.647Z" fill="#0E4528"/>
<path d="M120.369 141.309C143.413 172.313 131.072 249.797 125.733 264.157L91.3725 261.485L102.049 204.71L84.698 185.338L120.369 141.309Z" fill="#FFB147"/>
<path d="M127.871 203.875C129.755 198.07 125.572 191.414 118.392 184.339L113.93 193.957L127.871 203.875Z" fill="black"/>
<path d="M118.425 255.216C118.392 255.216 118.357 255.212 118.325 255.199C118.141 255.145 118.038 254.951 118.093 254.768C124.558 233.152 125.685 203.121 125.972 182.412C125.975 182.222 126.129 182.07 126.316 182.07C126.319 182.07 126.319 182.07 126.323 182.07C126.513 182.073 126.667 182.231 126.664 182.421C126.068 225.749 121.866 244.572 118.756 254.964C118.711 255.119 118.573 255.216 118.425 255.216Z" fill="black"/>
<path d="M139.05 184.126C139.069 181.567 138.757 178.927 137.128 177.029C136.214 175.965 132.913 177.035 131.104 177.893C131.017 177.935 133.293 167.504 132.34 166.743C131.165 165.802 129.954 166.431 129.414 167.51C128.502 169.332 127.891 171.459 127.182 173.37C126.123 176.236 124.822 178.705 122.478 180.729C120.62 182.334 118.492 183.311 117.575 185.767C116.892 187.595 117.117 189.483 117.33 191.382C117.562 193.474 117.984 195.559 118.811 197.503C119.201 198.415 119.758 199.401 120.714 199.804C121.857 200.285 123.245 199.63 124.336 199.208C126.793 198.254 129.282 197.381 131.796 196.588C133.86 195.936 135.95 194.892 137.373 193.21C138.844 191.469 138.793 189.525 138.908 187.372C138.97 186.35 139.04 185.248 139.05 184.126ZM120.228 193.632C120.237 193.635 120.247 193.635 120.257 193.638C120.118 193.803 120.102 193.806 120.228 193.632Z" fill="#D28572"/>
<path d="M133.055 182.479C132.823 182.479 132.611 182.321 132.553 182.083C132.485 181.806 132.656 181.522 132.933 181.454L138.116 180.184C138.393 180.117 138.673 180.288 138.744 180.565C138.812 180.842 138.641 181.126 138.364 181.193L133.181 182.463C133.139 182.473 133.097 182.479 133.055 182.479Z" fill="#925D4F"/>
<path d="M133.403 186.631C133.171 186.631 132.958 186.473 132.9 186.234C132.833 185.957 133.003 185.674 133.28 185.606L138.464 184.336C138.741 184.268 139.021 184.439 139.092 184.716C139.16 184.993 138.989 185.277 138.712 185.345L133.528 186.615C133.483 186.624 133.441 186.631 133.403 186.631Z" fill="#925D4F"/>
<path d="M133.287 191.015C133.055 191.015 132.843 190.857 132.785 190.618C132.717 190.341 132.888 190.057 133.164 189.99L138.348 188.72C138.625 188.652 138.905 188.823 138.976 189.1C139.044 189.377 138.873 189.661 138.596 189.728L133.412 190.998C133.367 191.008 133.325 191.015 133.287 191.015Z" fill="#925D4F"/>
<path d="M127.762 203.708C121.886 209.452 115.305 214.628 108.363 219.015C101.698 223.238 93.9965 227.57 85.9246 227.969C73.4547 228.591 68.1035 215.347 68.5993 204.742C69.1531 192.687 75.5121 181.641 81.2625 171.356C87.0129 161.057 95.2007 151.826 106.164 147.01C106.248 146.981 106.331 146.943 106.412 146.914L120.363 140.864V141.305C120.363 143.465 120.846 145.499 121.718 147.272L99.7083 193.903L118.386 184.339C120.073 191.073 123.364 197.493 127.762 203.708Z" fill="#FFB147"/>
<path d="M87.2576 199.895C87.132 199.895 87.0097 199.827 86.9485 199.708C86.8616 199.537 86.9292 199.331 87.0966 199.24L117.945 183.395C118.115 183.308 118.321 183.375 118.412 183.543C118.499 183.714 118.431 183.92 118.264 184.01L87.4154 199.856C87.3639 199.882 87.3124 199.895 87.2576 199.895Z" fill="black"/>
<path d="M98.1468 224.981C98.0373 224.981 97.9311 224.93 97.8635 224.836C97.754 224.682 97.7894 224.466 97.9472 224.353L127.562 203.424C127.717 203.315 127.932 203.35 128.045 203.508C128.155 203.663 128.119 203.879 127.961 203.991L98.3464 224.92C98.2853 224.962 98.2144 224.981 98.1468 224.981Z" fill="black"/>
<path d="M95.7255 195.224C95.6804 195.224 95.6353 195.214 95.5903 195.198C95.4132 195.124 95.3327 194.921 95.4067 194.744L104.222 173.809C104.296 173.631 104.499 173.551 104.676 173.625C104.853 173.699 104.934 173.902 104.86 174.079L96.0442 195.015C95.9895 195.144 95.8607 195.224 95.7255 195.224Z" fill="black"/>
<path d="M123.264 179.997C123.154 179.997 123.045 179.943 122.977 179.846L111.36 162.637L116.712 145.866C116.77 145.686 116.966 145.586 117.146 145.641C117.33 145.699 117.43 145.892 117.372 146.076L112.124 162.524L123.55 179.456C123.657 179.614 123.615 179.83 123.457 179.936C123.396 179.978 123.328 179.997 123.264 179.997Z" fill="black"/>
<path d="M268.242 146.811C267.868 150.511 264.458 149.834 262.839 152.841C260.878 156.48 255.54 160.329 251.312 157.715C249.062 156.323 247.404 154.057 246.55 151.549C245.32 147.932 248.836 142.846 250.723 140.116C252.552 137.47 257.031 136.654 260.07 136.622C262.069 136.603 264.378 138.237 265.563 140.158C266.793 142.156 268.477 144.503 268.242 146.811Z" fill="#D28572"/>
<path d="M269.694 146.405C270.299 147.836 268.67 149.048 266.429 149.992C264.188 150.94 262.185 151.265 261.583 149.834C260.933 148.29 262.607 147.191 264.848 146.247C267.086 145.299 268.902 144.529 269.694 146.405Z" fill="#D28572"/>
<path d="M265.4 146.96C268.152 145.796 270.036 144.031 269.609 143.018C269.181 142.004 266.603 142.126 263.851 143.29C261.099 144.454 259.215 146.219 259.643 147.233C260.071 148.246 262.648 148.124 265.4 146.96Z" fill="#D28572"/>
<path d="M286.175 101.305L283.819 99.8555L258.056 141.831L260.412 143.281L286.175 101.305Z" fill="black"/>
<path d="M250.829 140.941C252.545 141.257 254.207 139.288 255.913 139.645C258.415 140.168 260.131 139.948 262.849 138.907C264.317 138.346 266.393 136.793 266.442 135.03C266.455 134.511 266.316 133.918 265.859 133.669C265.225 133.321 264.487 133.834 263.889 134.24C260.018 136.86 254.741 134.414 250.62 140.861L250.829 140.941Z" fill="#D28572"/>
<path d="M267.224 139.79C268.1 141.035 266.87 142.501 264.236 144.38C261.602 146.259 260.105 146.756 259.661 145.299C259.378 144.374 259.31 143.007 261.944 141.128C264.577 139.249 266.075 138.163 267.224 139.79Z" fill="#D28572"/>
<path d="M254.683 148.596C254.58 148.596 254.48 148.551 254.413 148.464C254.294 148.316 254.32 148.097 254.468 147.977C256.512 146.353 257.233 144.358 256.68 141.879C256.638 141.692 256.754 141.508 256.94 141.466C257.127 141.425 257.311 141.541 257.352 141.728C257.971 144.49 257.169 146.711 254.896 148.519C254.835 148.571 254.757 148.596 254.683 148.596Z" fill="#925D4F"/>
<path d="M260.93 145.122C260.398 145.122 259.915 144.899 259.632 144.512C259.439 144.248 259.355 143.89 259.413 143.552C259.465 143.246 259.622 142.991 259.861 142.827C260.018 142.72 260.234 142.759 260.34 142.917C260.447 143.075 260.408 143.291 260.25 143.397C260.141 143.471 260.105 143.597 260.096 143.668C260.07 143.819 260.105 143.987 260.189 144.1C260.36 144.335 260.704 144.461 261.065 144.419C261.519 144.367 263.17 143.865 263.454 143.668C263.612 143.558 263.827 143.597 263.934 143.755C264.043 143.913 264.004 144.129 263.847 144.235C263.418 144.535 261.619 145.054 261.139 145.109C261.074 145.118 261 145.122 260.93 145.122Z" fill="#925D4F"/>
<path d="M262.559 147.571C262.246 147.571 261.828 147.504 261.545 147.181C261.306 146.911 261.226 146.508 261.332 146.131C261.406 145.876 262.227 144.268 262.51 144.032C262.659 143.91 262.874 143.929 262.997 144.077C263.116 144.222 263.1 144.435 262.958 144.558C262.791 144.735 262.066 146.089 261.995 146.318C261.953 146.466 261.979 146.63 262.063 146.724C262.182 146.859 262.44 146.907 262.829 146.859C263.798 146.743 264.748 146.395 265.666 146.063C265.846 145.998 266.042 146.089 266.11 146.269C266.174 146.45 266.084 146.646 265.904 146.714C264.948 147.062 263.963 147.42 262.913 147.549C262.839 147.558 262.71 147.571 262.559 147.571Z" fill="#925D4F"/>
<path d="M264.217 150.543C263.914 150.543 263.605 150.514 263.296 150.453C262.897 150.376 262.597 150.156 262.481 149.847C262.082 148.809 263.531 147.214 264.149 146.782C264.307 146.672 264.523 146.711 264.629 146.869C264.739 147.027 264.7 147.243 264.542 147.349C263.966 147.752 262.923 149.073 263.125 149.596C263.154 149.67 263.277 149.741 263.428 149.77C264.127 149.905 264.816 149.863 265.424 149.644C265.605 149.579 265.801 149.673 265.865 149.853C265.93 150.034 265.837 150.231 265.656 150.295C265.205 150.463 264.719 150.543 264.217 150.543Z" fill="#925D4F"/>
<path d="M171.437 177.657L188.006 187.453C204.118 196.884 220.033 195.691 234.711 181.886L257.507 160.29L243.495 145.26C233.591 154.704 214.472 173.425 198.473 162.511L180.9 149.628C173.994 144.983 166.215 141.798 158.04 140.271L141.793 137.573C139.852 163.04 148.622 222.512 159.093 256.808L188.785 245.452C184.113 230.093 175.997 196.249 171.437 177.657Z" fill="#FFB147"/>
<path d="M175.572 196.262C175.411 196.262 175.269 196.152 175.233 195.988L168.321 163.807C168.282 163.62 168.398 163.436 168.585 163.398C168.772 163.356 168.955 163.475 168.994 163.662L175.906 195.843C175.945 196.03 175.829 196.214 175.642 196.252C175.62 196.259 175.594 196.262 175.572 196.262Z" fill="black"/>
<path d="M163.968 247.431C163.803 247.431 163.658 247.315 163.63 247.148L150.329 175.011L155.377 160.996L144.392 140.832C144.302 140.664 144.363 140.454 144.53 140.361C144.698 140.271 144.907 140.332 145 140.5L156.137 160.935L151.047 175.066L164.312 247.019C164.347 247.206 164.222 247.386 164.035 247.422C164.009 247.428 163.99 247.431 163.968 247.431Z" fill="black"/>
<path d="M250.923 161.544C250.833 161.544 250.739 161.509 250.672 161.438L240.765 151.056C240.633 150.917 240.639 150.698 240.774 150.566C240.913 150.434 241.132 150.44 241.264 150.575L251.171 160.958C251.303 161.096 251.296 161.315 251.161 161.448C251.097 161.512 251.01 161.544 250.923 161.544Z" fill="black"/>
<path d="M120.959 202.838C120.884 202.838 120.807 202.812 120.746 202.763C117.237 200.001 114.934 195.633 113.708 189.409C113.672 189.222 113.791 189.039 113.981 189.003C114.168 188.968 114.352 189.087 114.387 189.277C115.578 195.33 117.8 199.566 121.174 202.222C121.326 202.341 121.351 202.557 121.232 202.709C121.161 202.792 121.062 202.838 120.959 202.838Z" fill="black"/>
<path d="M136.513 284.847C136.49 284.847 136.471 284.844 136.449 284.841C136.262 284.805 136.14 284.625 136.175 284.438L139.977 264.366C140.013 264.18 140.19 264.057 140.38 264.092C140.567 264.128 140.689 264.308 140.654 264.495L136.851 284.567C136.822 284.731 136.677 284.847 136.513 284.847Z" fill="black"/>
<path d="M515.095 297.702H510.394V452.725H515.095V297.702Z" fill="white"/>
<path d="M703.127 297.702H698.426V452.725H703.127V297.702Z" fill="white"/>
<path d="M784.096 297.183H443.746V305.844H784.096V297.183Z" fill="white"/>
<path d="M784.615 306.359H443.227V296.66H784.615V306.359ZM444.264 305.321H783.578V297.702H444.264V305.321Z" fill="black"/>
<path d="M814.993 406.864L837.302 431.258L814.584 453.398L815.44 430.945L802.185 419.728L814.993 406.864Z" fill="#36AB6D"/>
<path d="M815.051 431.79C814.755 431.79 814.481 431.599 814.391 431.303C814.278 430.939 814.484 430.552 814.848 430.439L821.281 428.453C821.645 428.341 822.034 428.547 822.144 428.911C822.257 429.275 822.05 429.662 821.687 429.775L815.254 431.761C815.186 431.78 815.118 431.79 815.051 431.79Z" fill="black"/>
<path d="M815.163 437.295C814.867 437.295 814.594 437.105 814.503 436.808C814.391 436.444 814.597 436.057 814.961 435.944L821.394 433.959C821.757 433.846 822.144 434.052 822.257 434.416C822.369 434.781 822.163 435.168 821.799 435.28L815.366 437.266C815.299 437.285 815.231 437.295 815.163 437.295Z" fill="black"/>
<path d="M830.937 436.541C830.869 436.541 830.802 436.531 830.734 436.508C828.265 435.748 826.455 433.234 826.336 430.397C826.223 427.706 827.627 425.507 830.093 424.511C830.448 424.37 830.85 424.54 830.992 424.895C831.133 425.249 830.963 425.652 830.609 425.794C827.872 426.897 827.675 429.337 827.717 430.336C827.814 432.599 829.221 434.591 831.14 435.184C831.504 435.296 831.71 435.683 831.597 436.047C831.507 436.35 831.233 436.541 830.937 436.541Z" fill="black"/>
<path d="M747.971 241.246L731.367 307.246C727.184 323.865 731.344 341.477 742.51 354.466L802.909 424.708L823.602 406.722L770.741 336.004L779.019 229.994L747.971 241.246Z" fill="#FFB147"/>
<path d="M747.279 260.969C747.14 260.969 747.011 260.885 746.957 260.75C746.886 260.573 746.973 260.373 747.15 260.299C753.203 257.875 755.843 251.705 755 241.965C754.984 241.775 755.125 241.607 755.315 241.591C755.502 241.575 755.673 241.717 755.689 241.907C756.561 251.989 753.776 258.394 747.407 260.943C747.366 260.963 747.321 260.969 747.279 260.969Z" fill="black"/>
<path d="M802.124 416.914C802.017 416.914 801.914 416.866 801.847 416.776C801.731 416.624 801.763 416.405 801.914 416.292L814.787 406.587C814.938 406.471 815.157 406.503 815.27 406.654C815.386 406.806 815.353 407.025 815.202 407.138L802.33 416.843C802.268 416.892 802.194 416.914 802.124 416.914Z" fill="black"/>
<path d="M790.143 423.657L791.55 453.479H754.536L771.05 438.114L771.919 423.863L790.143 423.657Z" fill="#36AB6D"/>
<path d="M777.003 441.946C776.894 441.946 776.784 441.92 776.681 441.865L770.725 438.726C770.387 438.549 770.258 438.13 770.435 437.791C770.612 437.453 771.031 437.324 771.369 437.501L777.325 440.641C777.663 440.818 777.792 441.237 777.615 441.575C777.492 441.811 777.251 441.946 777.003 441.946Z" fill="black"/>
<path d="M773.201 445.924C773.091 445.924 772.982 445.898 772.879 445.843L766.922 442.703C766.584 442.526 766.455 442.107 766.632 441.769C766.809 441.43 767.228 441.301 767.566 441.479L773.523 444.618C773.861 444.795 773.99 445.214 773.813 445.553C773.69 445.788 773.452 445.924 773.201 445.924Z" fill="black"/>
<path d="M782.451 453.276C782.203 453.276 781.965 453.144 781.839 452.908C780.5 450.391 781.044 447.016 783.159 444.705C785.165 442.517 787.969 441.891 790.668 443.039C791.019 443.187 791.183 443.593 791.035 443.948C790.887 444.299 790.481 444.463 790.127 444.315C787.992 443.409 785.767 443.906 784.177 445.643C782.451 447.529 781.991 450.252 783.056 452.264C783.237 452.602 783.108 453.021 782.77 453.198C782.67 453.25 782.56 453.276 782.451 453.276Z" fill="black"/>
<path d="M771.955 235.48L762.585 336.062L767.022 430.197L794.206 428.721L805.694 273.082C809.841 259.586 810.878 249.207 809.178 236.949L771.955 235.48Z" fill="#FFB147"/>
<path d="M801.199 260.45C801.177 260.45 801.154 260.447 801.132 260.444C792.542 258.784 787.454 250.693 788.179 239.837C788.192 239.647 788.35 239.499 788.546 239.515C788.736 239.528 788.881 239.692 788.868 239.883C788.546 244.705 789.451 249.256 791.418 252.701C793.582 256.495 796.985 258.935 801.264 259.764C801.451 259.799 801.573 259.98 801.537 260.17C801.508 260.337 801.364 260.45 801.199 260.45Z" fill="black"/>
<path d="M766.636 430.294C766.452 430.294 766.301 430.149 766.291 429.965L761.796 332.961C761.796 332.945 761.796 332.925 761.796 332.909L769.746 254.706C769.765 254.516 769.933 254.374 770.126 254.397C770.316 254.416 770.454 254.587 770.435 254.777L762.489 332.954L766.964 429.588L793.884 428.389L800.394 338.112C800.407 337.921 800.568 337.776 800.765 337.793C800.955 337.805 801.099 337.973 801.083 338.163L794.551 428.747C794.538 428.921 794.396 429.059 794.222 429.069L766.652 430.297C766.645 430.294 766.639 430.294 766.636 430.294Z" fill="black"/>
<path d="M771.475 424.988C771.291 424.988 771.14 424.847 771.13 424.66C771.121 424.469 771.266 424.305 771.459 424.295L790.127 423.309C790.32 423.299 790.481 423.444 790.49 423.638C790.5 423.831 790.355 423.992 790.162 424.002L771.494 424.988C771.488 424.988 771.481 424.988 771.475 424.988Z" fill="black"/>
<path d="M808.717 167.021C828.957 145.415 789.792 144.703 791.347 124.457C792.989 103.087 777.692 104.215 777.692 104.215C777.692 104.215 764.05 92.115 752.804 103.522C739.033 117.492 749.796 125.334 739.149 137.086C723.288 154.598 741.905 174.112 741.905 174.112L808.717 167.021Z" fill="black"/>
<path d="M854.457 153.802C854.94 153.425 864.895 142.811 864.895 142.811C864.895 142.811 868.859 127.091 870.34 128.896C871.821 130.701 869.586 140.538 869.586 140.538C869.586 140.538 876.56 140.403 877.178 142.101C877.796 143.8 877.503 153.528 864.177 163.907L854.457 153.802Z" fill="#FFBC96"/>
<path d="M865.491 143.652C865.098 140.777 863.588 135.607 862.638 135.516C861.691 135.423 861.434 139.404 861.36 142.43C861.241 147.342 859.035 151.288 859.937 151.597C861.971 152.293 865.797 145.863 865.491 143.652Z" fill="#FFBC96"/>
<path d="M869.96 147.172C869.809 147.172 869.664 147.139 869.532 147.078C869.12 146.875 868.904 146.427 868.894 145.741C868.878 144.603 869.1 143.446 869.535 142.395C869.612 142.208 869.831 142.118 870.015 142.195C870.201 142.272 870.292 142.488 870.214 142.675C869.818 143.633 869.615 144.69 869.631 145.728C869.638 146.102 869.715 146.346 869.854 146.414C869.941 146.456 870.079 146.437 870.201 146.363C870.829 145.979 871.425 144.861 871.792 143.375C871.84 143.178 872.04 143.059 872.236 143.107C872.433 143.155 872.555 143.355 872.504 143.552C872.256 144.548 871.679 146.321 870.581 146.991C870.391 147.11 870.172 147.172 869.96 147.172Z" fill="#D28572"/>
<path d="M871.834 148.129C871.612 148.129 871.399 148.058 871.238 147.919C870.906 147.636 870.884 147.191 870.897 146.885C870.929 146.047 871.112 145.234 871.438 144.461C871.518 144.274 871.734 144.187 871.921 144.264C872.107 144.345 872.194 144.561 872.117 144.748C871.827 145.438 871.663 146.166 871.634 146.914C871.624 147.156 871.653 147.304 871.718 147.362C871.772 147.407 871.892 147.407 871.991 147.359C872.143 147.288 872.281 147.133 872.397 146.998C873.276 145.953 873.865 144.69 874.107 143.346C874.142 143.146 874.332 143.014 874.535 143.049C874.735 143.085 874.867 143.275 874.831 143.478C874.567 144.948 873.92 146.33 872.961 147.475C872.78 147.687 872.577 147.903 872.301 148.032C872.149 148.094 871.988 148.129 871.834 148.129Z" fill="#D28572"/>
<path d="M874.471 148.126C874.248 148.126 874.036 148.055 873.875 147.916C873.543 147.633 873.521 147.188 873.534 146.878C873.553 146.395 873.63 145.979 873.724 145.496C873.788 145.151 873.856 144.793 873.914 144.358C873.939 144.155 874.126 144.013 874.326 144.039C874.528 144.064 874.67 144.248 874.644 144.451C874.586 144.909 874.512 145.292 874.448 145.631C874.361 146.085 874.287 146.475 874.271 146.904C874.261 147.146 874.29 147.294 874.355 147.352C874.409 147.397 874.528 147.397 874.628 147.349C874.78 147.278 874.918 147.127 875.034 146.988C875.91 145.944 876.502 144.68 876.744 143.336C876.779 143.136 876.972 143.004 877.172 143.039C877.371 143.075 877.507 143.268 877.468 143.468C877.204 144.938 876.557 146.321 875.597 147.465C875.417 147.678 875.214 147.894 874.937 148.023C874.786 148.094 874.625 148.126 874.471 148.126Z" fill="#D28572"/>
<path d="M866.569 150.208C866.534 150.208 866.502 150.205 866.466 150.195C866.27 150.14 866.157 149.934 866.215 149.741C866.904 147.349 866.585 145.489 865.214 143.894C865.082 143.739 865.098 143.507 865.253 143.375C865.407 143.243 865.639 143.259 865.771 143.413C867.3 145.189 867.677 147.326 866.92 149.944C866.875 150.102 866.727 150.208 866.569 150.208Z" fill="#D28572"/>
<path d="M790.69 175.769L818.312 193.957C825.161 199.053 834.469 198.808 840.457 192.92C842.103 191.301 868.485 163.504 868.485 163.504L858.736 149.305L831.323 175.43L805.826 155.394C803.785 153.882 801.441 152.899 798.991 152.535L767.518 147.836C767.521 147.839 789.895 175.175 790.69 175.769Z" fill="#36AB6D"/>
<path d="M692.205 248.398L686.097 256.705C677.456 257.514 671.58 260.627 666.567 265.875L698.77 265.817L705.567 247.709L692.205 248.398Z" fill="#FFBC96"/>
<path d="M766.71 148.184C758.161 152.625 750.254 155.639 742.095 160.516C739.474 162.083 736.795 164.448 734.158 167.549C731.084 171.162 728.637 175.24 726.682 179.527L714.56 206.409L687.369 255.083L706.495 255.544L731.612 214.251L766.71 148.184Z" fill="#36AB6D"/>
<path d="M749.719 167.404C731.016 179.704 747.069 206.512 743.57 241.314C743.145 245.546 746.937 249.011 751.078 248.06C767.309 244.334 787.876 242.919 804.326 244.15C808.157 244.437 811.309 241.178 810.939 237.349C805.617 217.304 803.215 194.953 804.397 169.77L777.026 147.781L757.556 153.347L749.719 167.404Z" fill="#36AB6D"/>
<path d="M761.796 125.318V152.303C761.796 158.453 767.482 160.123 771.623 159.91C775.145 159.73 780.522 157.725 780.461 152.303V125.318H761.796Z" fill="#FFBC96"/>
<path d="M761.796 137.927V150.585C766.851 149.434 773.461 144.957 775.709 138.752L761.796 137.927Z" fill="#D28572"/>
<path d="M786.005 112.277L780.979 128.612C780.03 133.212 779.514 136.419 775.802 139.294C770.222 143.616 763.558 144.709 761.214 143.146C757.466 140.638 756.043 138.698 755.56 135.465C755.241 133.408 755.296 130.814 755.367 127.22C755.45 122.888 755.56 117.076 755.035 108.96C754.967 107.845 769.401 102.207 769.401 102.207L786.005 112.277Z" fill="#FFBC96"/>
<path d="M781.759 125.672C780.635 121.521 777.67 121.231 775.709 113.733C765.512 119.442 759.81 108.889 751.039 124.461L751.429 111.658L756.96 104.044L767.933 101.537L785.993 108.718L788.929 117.195L781.759 125.672Z" fill="black"/>
<path d="M785.413 128.221C786.293 125.447 784.788 122.493 782.051 121.623C779.314 120.753 776.381 122.296 775.501 125.07C774.621 127.844 776.127 130.798 778.864 131.668C781.601 132.539 784.533 130.995 785.413 128.221Z" fill="#FFBC96"/>
<path d="M742.266 207.508C742.095 207.508 741.947 207.382 741.924 207.211L738.466 182.989C738.441 182.798 738.569 182.624 738.759 182.599C738.949 182.573 739.123 182.705 739.149 182.892L742.607 207.115C742.633 207.305 742.504 207.479 742.314 207.505C742.298 207.508 742.282 207.508 742.266 207.508Z" fill="black"/>
<path d="M811.915 190.206C811.844 190.206 811.773 190.183 811.712 190.141L796.157 178.895C796.003 178.782 795.967 178.566 796.08 178.412C796.193 178.257 796.409 178.221 796.563 178.334L812.118 189.58C812.272 189.693 812.307 189.909 812.195 190.064C812.127 190.157 812.021 190.206 811.915 190.206Z" fill="black"/>
<path d="M770.065 163.791C766.478 163.791 763.142 162.395 760.55 160.435C760.399 160.319 760.367 160.103 760.483 159.952C760.599 159.8 760.814 159.768 760.966 159.884C765.831 163.562 773.442 165.164 780.22 158.643C780.358 158.511 780.577 158.514 780.709 158.653C780.841 158.792 780.838 159.011 780.699 159.143C777.219 162.489 773.526 163.791 770.065 163.791Z" fill="black"/>
<path d="M781.153 234.5C781.009 234.5 780.877 234.409 780.825 234.264C780.764 234.084 780.86 233.887 781.041 233.826C788.504 231.267 793.63 224.047 796.718 211.75C796.763 211.563 796.953 211.453 797.136 211.498C797.323 211.544 797.432 211.734 797.387 211.917C794.238 224.456 788.965 231.837 781.263 234.48C781.228 234.493 781.189 234.5 781.153 234.5Z" fill="black"/>
<path d="M721.009 210.448C720.967 210.448 720.925 210.441 720.883 210.425L714.892 208.117C714.714 208.05 714.624 207.85 714.692 207.669C714.76 207.492 714.959 207.402 715.14 207.469L721.131 209.777C721.308 209.845 721.399 210.045 721.331 210.225C721.28 210.364 721.148 210.448 721.009 210.448Z" fill="black"/>
<path d="M827.009 179.769C826.915 179.769 826.822 179.73 826.754 179.656C826.626 179.514 826.632 179.298 826.774 179.166L831.088 175.175C831.23 175.046 831.449 175.053 831.578 175.195C831.706 175.337 831.7 175.553 831.558 175.685L827.244 179.675C827.176 179.736 827.092 179.769 827.009 179.769Z" fill="black"/>
<path d="M758.245 124.441C758.306 125.241 758.847 125.847 759.452 125.801C760.058 125.753 760.499 125.07 760.438 124.27C760.377 123.471 759.836 122.865 759.23 122.91C758.625 122.958 758.184 123.642 758.245 124.441Z" fill="black"/>
<path d="M763.162 131.723C763.133 131.723 763.104 131.719 763.075 131.713L763.007 131.694C762.337 131.519 761.423 131.284 760.963 130.62C760.389 129.792 761.104 128.822 761.375 128.457C761.98 127.639 762.669 126.533 762.614 125.276C762.605 125.086 762.753 124.925 762.946 124.915C763.139 124.909 763.297 125.054 763.306 125.247C763.371 126.72 762.605 127.958 761.932 128.87C761.458 129.508 761.333 129.94 761.529 130.227C761.841 130.678 762.582 130.868 763.178 131.023L763.249 131.042C763.432 131.091 763.545 131.278 763.496 131.465C763.455 131.619 763.316 131.723 763.162 131.723Z" fill="#D28572"/>
<path d="M766.887 132.367L760.934 133.921C760.934 133.921 764.35 138.659 766.887 132.367Z" fill="white"/>
<path d="M769.788 120.751C769.324 120.531 768.88 120.344 768.426 120.212C767.972 120.08 767.518 120 767.07 119.987C766.623 119.977 766.182 120.025 765.763 120.161C765.341 120.296 764.945 120.518 764.549 120.828L764.221 120.589C764.433 120.064 764.865 119.606 765.39 119.329C765.914 119.045 766.52 118.923 767.103 118.952C767.685 118.978 768.252 119.136 768.757 119.39C769.26 119.645 769.71 120 770.045 120.438L769.788 120.751Z" fill="black"/>
<path d="M757.018 121.869C757.302 120.96 758.181 120.228 759.179 120.051C759.675 119.954 760.193 119.999 760.663 120.161C761.13 120.322 761.552 120.602 761.841 120.983L761.603 121.311C761.194 121.186 760.818 121.092 760.447 121.047C760.077 121.002 759.713 121.015 759.362 121.073C759.008 121.134 758.667 121.247 758.335 121.418C758.004 121.589 757.691 121.817 757.363 122.091L757.018 121.869Z" fill="black"/>
<path opacity="0.5" d="M758.921 130.656C759.073 132.744 757.595 134.588 755.563 134.891C755.244 132.925 755.299 130.449 755.37 127.017C757.234 127.21 758.767 128.718 758.921 130.656Z" fill="#FF9289"/>
<path opacity="0.5" d="M773.199 132.267C775.254 131.518 776.314 129.243 775.566 127.186C774.818 125.128 772.545 124.067 770.49 124.816C768.435 125.565 767.375 127.84 768.123 129.897C768.871 131.955 771.144 133.016 773.199 132.267Z" fill="#FF9289"/>
<path d="M766.166 123.49C766.227 124.29 766.768 124.896 767.373 124.851C767.978 124.802 768.419 124.119 768.358 123.319C768.297 122.52 767.756 121.914 767.151 121.959C766.542 122.008 766.101 122.691 766.166 123.49Z" fill="black"/>
<path d="M780.001 128.554C779.82 128.554 779.669 128.412 779.656 128.232C779.482 125.573 780.583 123.974 782.927 123.487C783.117 123.448 783.298 123.568 783.336 123.755C783.375 123.942 783.256 124.125 783.069 124.164C781.06 124.583 780.197 125.859 780.348 128.187C780.361 128.377 780.216 128.541 780.026 128.554C780.014 128.554 780.007 128.554 780.001 128.554Z" fill="#D28572"/>
<path d="M710.561 265.91H651.685V297.141H710.561V265.91Z" fill="white"/>
<path d="M711.073 297.656H651.17V265.398H711.073V297.656ZM652.197 296.628H710.046V266.423H652.197V296.628Z" fill="black"/>
<path opacity="0.6" d="M710.555 275.848L652.139 284.76V271.438L710.555 275.848Z" fill="#36AB6D"/>
<path d="M715.484 265.91H646.759V275.944H715.484V265.91Z" fill="white"/>
<path d="M716.002 276.467H646.24V265.395H716.002V276.467ZM647.277 275.429H714.966V266.433H647.277V275.429Z" fill="black"/>
<path d="M618.177 140.451C618.177 127.116 607.379 116.306 594.059 116.306C580.739 116.306 569.94 127.116 569.94 140.451C569.94 151.691 577.619 161.106 588.002 163.8L585.42 173.029L594.068 164.597C607.385 164.59 618.177 153.783 618.177 140.451Z" fill="#36AB6D"/>
<path d="M584.725 142.453C586.108 142.453 587.229 141.33 587.229 139.945C587.229 138.56 586.108 137.437 584.725 137.437C583.341 137.437 582.22 138.56 582.22 139.945C582.22 141.33 583.341 142.453 584.725 142.453Z" fill="white"/>
<path d="M594.055 142.453C595.439 142.453 596.56 141.33 596.56 139.945C596.56 138.56 595.439 137.437 594.055 137.437C592.672 137.437 591.551 138.56 591.551 139.945C591.551 141.33 592.672 142.453 594.055 142.453Z" fill="white"/>
<path d="M603.389 142.453C604.773 142.453 605.894 141.33 605.894 139.945C605.894 138.56 604.773 137.437 603.389 137.437C602.006 137.437 600.884 138.56 600.884 139.945C600.884 141.33 602.006 142.453 603.389 142.453Z" fill="white"/>
<path d="M713.88 152.925L706.539 148.603C707.528 145.966 708.095 143.12 708.095 140.135C708.095 126.801 697.296 115.99 683.976 115.99C670.656 115.99 659.857 126.801 659.857 140.135C659.857 153.47 670.656 164.281 683.976 164.281C692.263 164.281 699.569 160.094 703.912 153.721L713.88 152.925Z" fill="#36AB6D"/>
<path d="M674.864 141.934C676.247 141.934 677.369 140.811 677.369 139.426C677.369 138.041 676.247 136.918 674.864 136.918C673.48 136.918 672.359 138.041 672.359 139.426C672.359 140.811 673.48 141.934 674.864 141.934Z" fill="white"/>
<path d="M684.198 141.934C685.581 141.934 686.703 140.811 686.703 139.426C686.703 138.041 685.581 136.918 684.198 136.918C682.814 136.918 681.693 138.041 681.693 139.426C681.693 140.811 682.814 141.934 684.198 141.934Z" fill="white"/>
<path d="M693.529 141.934C694.912 141.934 696.034 140.811 696.034 139.426C696.034 138.041 694.912 136.918 693.529 136.918C692.145 136.918 691.024 138.041 691.024 139.426C691.024 140.811 692.145 141.934 693.529 141.934Z" fill="white"/>
<path d="M546.455 453.305H0.518376C0.23182 453.305 0 453.073 0 452.786C0 452.499 0.23182 452.267 0.518376 452.267H546.455C546.741 452.267 546.973 452.499 546.973 452.786C546.973 453.073 546.741 453.305 546.455 453.305Z" fill="black"/>
<path d="M883.853 453.479H569.614C569.231 453.479 568.922 453.169 568.922 452.786C568.922 452.402 569.231 452.093 569.614 452.093H883.853C884.236 452.093 884.545 452.402 884.545 452.786C884.545 453.169 884.236 453.479 883.853 453.479Z" fill="black"/>
</g>
<defs>
<clipPath id="clip0_2_95">
<rect width="888" height="467" fill="white"/>
</clipPath>
</defs>
</svg>
